# xmcd
#
# Track frame offsets:
#	150
#	14966
#	33489
#	48625
#	63218
#	77572
#	92395
#	106308
#	120880
#	137106
#	150761
#	165263
#	178126
#	189659
#	206898
#
# Disc length: 3007 seconds
#
# Revision: 0
# Processed by: cddbd v1.5.2PL0 Copyright (c) Steve Scherf et al.
# Submitted via: EasyCDDAExtractor 8.2.3.1
#
DISCID=bd0bbd0f
DTITLE=James Lann
DYEAR=2007
DGENRE=country
TTITLE0=It's Not Your Time
TTITLE1=Daddy's Little Girl
TTITLE2=Beautiful In His Eyes
TTITLE3=F O R D
TTITLE4=Deep In The Heart Of This Texa
TTITLE5=Honky Tonk Two Step Queen
TTITLE6=You're From The Country Too
TTITLE7=The Picture
TTITLE8=Moving On
TTITLE9=Cowgirl With An Attitude
TTITLE10=Emmy's Eyes
TTITLE11=Tall, Dark And Handsome
TTITLE12=40 Miles Down 25
TTITLE13=Big Wheels In The Moonlight
TTITLE14=Texas In My Rear View Mirror
EXTD=
EXTT0=
EXTT1=
EXTT2=
EXTT3=
EXTT4=
EXTT5=
EXTT6=
EXTT7=
EXTT8=
EXTT9=
EXTT10=
EXTT11=
EXTT12=
EXTT13=
EXTT14=
PLAYORDER=
